<svg width="28" height="18" viewBox="0 0 28 18" fill="none" xmlns="http://www.w3.org/2000/svg">
<path d="M15.1798 17.4001C6.15993 17.4001 1.01515 11.0938 0.800781 0.600098H5.31896C5.46736 8.3022 8.79828 11.5647 11.4366 12.2373V0.600098H15.691V7.24274C18.2963 6.95685 21.0336 3.92983 21.9571 0.600098H26.2114C25.8634 2.32699 25.1698 3.96208 24.1739 5.4031C23.178 6.84412 21.9013 8.06006 20.4235 8.97487C22.073 9.81076 23.53 10.9939 24.6982 12.4462C25.8664 13.8985 26.7194 15.5869 27.2008 17.4001H22.5177C22.0856 15.8252 21.2073 14.4155 19.9928 13.3475C18.7784 12.2795 17.282 11.6008 15.691 11.3965V17.4001H15.1798Z" fill="#0077FF"/>
</svg>
